# xmcd
#
# Track frame offsets: 
#        150
#        20571
#        40303
#        56369
#        73757
#        99746
#        118255
#        140451
#        159591
#        177730
#        199395
#        218094
#        241811
#        274087
#        304094
#
# Disc length: 4305 seconds
#
# Revision: 0
# Processed by: cddbd v1.5.2PL0 Copyright (c) Steve Scherf et al.
# Submitted via: ExactAudioCopy v1.0b4
#
DISCID=e410cf0f
DTITLE=Gugun Blues Shelter - Satu Untuk Berbagi
DYEAR=2011
DGENRE=Blues Rock
TTITLE0=Ikuti Langkah
TTITLE1=Kandas
TTITLE2=Seperti Arus
TTITLE3=Satu Untuk Berbagi
TTITLE4=Basa - Basi
TTITLE5=Jangan Berkata Dalam Hati
TTITLE6=On The Road Again
TTITLE7=Mobil Butut
TTITLE8=Putus Cinta
TTITLE9=She Don't Need Romancing
TTITLE10=Give Your Love
TTITLE11=It's Time To Rule The World
TTITLE12=Fallin' Down
TTITLE13=Funk No. 1
TTITLE14=Shuffira
EXTD=
EXTT0=
EXTT1=
EXTT2=
EXTT3=
EXTT4=
EXTT5=
EXTT6=
EXTT7=
EXTT8=
EXTT9=
EXTT10=
EXTT11=
EXTT12=
EXTT13=
EXTT14=
PLAYORDER=
